<svg xmlns="http://www.w3.org/2000/svg" viewBox="0 0 24 24" fill="none" stroke="#475569" stroke-width="2" stroke-linecap="round" stroke-linejoin="round">
  <path d="m15 12-8.5 8.5c-.83.83-2.17.83-3 0 0 0 0 0 0 0-.83-.83-.83-2.17 0-3L12 9"/>
  <path d="M17.64 15 22 10.64"/>
  <path d="m20.91 11.7-1.25-1.25c-.6-.6-.93-1.4-.93-2.25v-.86c0-1 .81-1.84 1.81-1.84.34 0 .65.09.93.25l.93.56c.6.36 1.36.14 1.72-.46.36-.6.14-1.36-.46-1.72l-.93-.56a4.37 4.37 0 0 0-4.37-.12l-1.91 1.15a3.003 3.003 0 0 1-3.03 0l-1.91-1.15a4.37 4.37 0 0 0-4.37.12l-.93.56c-.6.36-.82 1.12-.46 1.72.36.6 1.12.82 1.72.46l.93-.56c.28-.16.59-.25.93-.25 1 0 1.81.84 1.81 1.84v.86c0 .85-.33 1.65-.93 2.25l-1.25 1.25"/>
  <path d="m15 12-3-3"/>
  <path d="m18 15-3-3"/>
</svg>